<svg width="1024" height="1024" viewBox="0 0 1024 1024" fill="none" xmlns="http://www.w3.org/2000/svg">
  <rect width="1024" height="1024" fill="#0C1615"/>
  <rect x="112" y="112" width="800" height="800" rx="168" fill="#1A4A45"/>
  <path d="M276 724V320H440C515.111 320 576 380.889 576 456V500H468V468C468 434.863 441.137 408 408 408H384V636H408C441.137 636 468 609.137 468 576V544H576V588C576 663.111 515.111 724 440 724H276Z" fill="#F6EFE4"/>
  <path d="M622 724V616H702C735.137 616 762 589.137 762 556V540H870V568C870 654.157 800.157 724 714 724H622Z" fill="#E2A84A"/>
  <path d="M622 408V300H714C800.157 300 870 369.843 870 456V484H762V468C762 434.863 735.137 408 702 408H622Z" fill="#E2A84A"/>
  <path d="M608 446H870V538H608V446Z" fill="#E2A84A"/>
  <path d="M652 484H870V538H652C637.641 538 626 526.359 626 512C626 496.536 636.536 484 652 484Z" fill="#1A4A45"/>
  <path d="M188 292H286V402L238 450H188V292Z" fill="#E2A84A"/>
  <path d="M738 726H836V836H690V786L738 726Z" fill="#F6EFE4"/>
  <rect x="680" y="188" width="132" height="44" fill="#F6EFE4"/>
  <rect x="734" y="164" width="24" height="92" fill="#F6EFE4"/>
</svg>
